<?xml version="1.0" encoding="UTF-8" standalone="no"?><!DOCTYPE svg PUBLIC "-//W3C//DTD SVG 1.1//EN" "http://www.w3.org/Graphics/SVG/1.1/DTD/svg11.dtd"><svg width="100%" height="100%" viewBox="0 0 2377 1259" version="1.1" xmlns="http://www.w3.org/2000/svg" xmlns:xlink="http://www.w3.org/1999/xlink" xml:space="preserve" xmlns:serif="http://www.serif.com/" style="fill-rule:evenodd;clip-rule:evenodd;stroke-linecap:round;stroke-linejoin:round;stroke-miterlimit:1.5;"><path d="M980.461,466.489l313.417,-349.089l900.713,698.179l-290.921,-0l-2.561,404.559" style="fill:none;stroke:#179fdf;stroke-width:13.89px;"/><g><path d="M350.86,1175.03l-0,-1168.08l328.707,0l0,1125.63" style="fill:none;stroke:#179fdf;stroke-width:13.89px;"/><path d="M701.743,1130.72l0,-943.681l278.79,-0l-0,938.266" style="fill:none;stroke:#179fdf;stroke-width:13.89px;"/><path d="M6.944,1246.65c0,-0 683.623,-178.348 1268.27,-102.046c991.678,129.425 884.751,127.175 1094.44,69.974" style="fill-opacity:0;stroke:#179fdf;stroke-width:13.89px;"/></g><g><rect x="1258.88" y="482.303" width="88.95" height="71.714" style="fill:#fff;stroke:#179fdf;stroke-width:13.89px;"/><rect x="1258.88" y="573.952" width="88.95" height="71.714" style="fill:#fff;stroke:#179fdf;stroke-width:13.89px;"/><rect x="1365.88" y="482.303" width="88.95" height="71.714" style="fill:#fff;stroke:#179fdf;stroke-width:13.89px;"/><rect x="1365.88" y="573.952" width="88.95" height="71.714" style="fill:#fff;stroke:#179fdf;stroke-width:13.89px;"/></g><g><rect x="743.164" y="255.567" width="88.95" height="71.714" style="fill:#fff;stroke:#179fdf;stroke-width:13.89px;"/><rect x="743.164" y="347.216" width="88.95" height="71.714" style="fill:#fff;stroke:#179fdf;stroke-width:13.89px;"/><rect x="850.162" y="255.567" width="88.95" height="71.714" style="fill:#fff;stroke:#179fdf;stroke-width:13.89px;"/><rect x="850.162" y="347.216" width="88.95" height="71.714" style="fill:#fff;stroke:#179fdf;stroke-width:13.89px;"/></g><g><rect x="405.109" y="106.353" width="99.963" height="80.593" style="fill:#fff;fill-opacity:0.05;stroke:#179fdf;stroke-width:13.89px;"/><rect x="405.109" y="209.349" width="99.963" height="80.593" style="fill:#fff;stroke:#179fdf;stroke-width:13.89px;"/><rect x="525.355" y="106.353" width="99.963" height="80.593" style="fill:#fff;stroke:#179fdf;stroke-width:13.89px;"/><rect x="525.355" y="209.349" width="99.963" height="80.593" style="fill:#fff;stroke:#179fdf;stroke-width:13.89px;"/></g><g><rect x="405.109" y="370.428" width="99.963" height="80.593" style="fill:#fff;fill-opacity:0.03;stroke:#179fdf;stroke-width:13.89px;"/><rect x="405.109" y="473.424" width="99.963" height="80.593" style="fill:#fff;stroke:#179fdf;stroke-width:13.89px;"/><rect x="525.355" y="370.428" width="99.963" height="80.593" style="fill:#fff;stroke:#179fdf;stroke-width:13.89px;"/><rect x="525.355" y="473.424" width="99.963" height="80.593" style="fill:#fff;stroke:#179fdf;stroke-width:13.89px;"/></g><g><rect x="405.109" y="627.805" width="99.963" height="80.593" style="fill:#fff;fill-opacity:0.09;stroke:#179fdf;stroke-width:13.89px;"/><rect x="405.109" y="730.802" width="99.963" height="80.593" style="fill:#fff;stroke:#179fdf;stroke-width:13.89px;"/><rect x="525.355" y="627.805" width="99.963" height="80.593" style="fill:#fff;stroke:#179fdf;stroke-width:13.89px;"/><rect x="525.355" y="730.802" width="99.963" height="80.593" style="fill:#fff;stroke:#179fdf;stroke-width:13.89px;"/></g><g><rect x="405.109" y="887.933" width="99.963" height="80.593" style="fill:#fff;stroke:#179fdf;stroke-width:13.89px;"/><rect x="405.109" y="990.93" width="99.963" height="80.593" style="fill:#fff;stroke:#179fdf;stroke-width:13.89px;"/><rect x="525.355" y="887.933" width="99.963" height="80.593" style="fill:#fff;stroke:#179fdf;stroke-width:13.89px;"/><rect x="525.355" y="990.93" width="99.963" height="80.593" style="fill:#fff;fill-opacity:0.08;stroke:#179fdf;stroke-width:13.89px;"/></g><g><rect x="743.164" y="482.303" width="88.95" height="71.714" style="fill:#fff;fill-opacity:0.12;stroke:#179fdf;stroke-width:13.89px;"/><rect x="743.164" y="573.952" width="88.95" height="71.714" style="fill:#fff;stroke:#179fdf;stroke-width:13.89px;"/><rect x="850.162" y="482.303" width="88.95" height="71.714" style="fill:#fff;stroke:#179fdf;stroke-width:13.89px;"/><rect x="850.162" y="573.952" width="88.95" height="71.714" style="fill:#fff;stroke:#179fdf;stroke-width:13.89px;"/></g><g><rect x="743.164" y="717.851" width="88.95" height="71.714" style="fill:#fff;stroke:#179fdf;stroke-width:13.89px;"/><rect x="743.164" y="809.501" width="88.95" height="71.714" style="fill:#fff;stroke:#179fdf;stroke-width:13.89px;"/><rect x="850.162" y="717.851" width="88.95" height="71.714" style="fill:#fff;stroke:#179fdf;stroke-width:13.89px;"/><rect x="850.162" y="809.501" width="88.95" height="71.714" style="fill:#fff;fill-opacity:0.11;stroke:#179fdf;stroke-width:13.89px;"/></g><g><rect x="743.164" y="956.508" width="88.95" height="71.714" style="fill:#fff;stroke:#179fdf;stroke-width:13.89px;"/><rect x="743.164" y="1048.16" width="88.95" height="71.714" style="fill:#fff;stroke:#179fdf;stroke-width:13.89px;"/><rect x="850.162" y="956.508" width="88.95" height="71.714" style="fill:#fff;stroke:#179fdf;stroke-width:13.89px;"/><rect x="850.162" y="1048.16" width="88.95" height="71.714" style="fill:#fff;fill-opacity:0.03;stroke:#179fdf;stroke-width:13.89px;"/></g></svg>